<?xml version="1.0" encoding="UTF-8"?>
<svg version="1.1" xmlns="http://www.w3.org/2000/svg" width="150" height="150">
<path d="M0 0 C2.26685452 1.68622161 4.37461281 3.45620684 6.4765625 5.34375 C7.70826172 6.43623047 7.70826172 6.43623047 8.96484375 7.55078125 C22.24806842 20.02774039 31.07984821 37.58848816 31.8125 55.9453125 C32.13371051 77.23647878 28.10626638 96.0522542 13.4765625 112.34375 C12.74824219 113.16488281 12.01992187 113.98601562 11.26953125 114.83203125 C-1.20742789 128.11525592 -18.76817566 136.94703571 -37.125 137.6796875 C-58.41616628 138.00089801 -77.2319417 133.97345388 -93.5234375 119.34375 C-94.34457031 118.61542969 -95.16570312 117.88710937 -96.01171875 117.13671875 C-109.29494342 104.65975961 -118.12672321 87.09901184 -118.859375 68.7421875 C-119.18058551 47.45102122 -115.15314138 28.6352458 -100.5234375 12.34375 C-99.79511719 11.52261719 -99.06679687 10.70148437 -98.31640625 9.85546875 C-72.64852592 -17.47107913 -30.68115209 -20.13747444 0 0 Z " fill="#5843BE" transform="translate(118.5234375,12.65625)"/>
<path d="M0 0 C8.67472014 7.34722509 15.5924258 16.61550792 17.390625 28.05859375 C18.43803135 42.85743189 15.93992015 54.83431395 6.203125 66.30859375 C-3.09260864 76.14477702 -14.774951 80.84434707 -28.171875 81.37109375 C-40.73457872 81.21542208 -50.75064128 76.44639329 -59.828125 67.9921875 C-68.54416575 58.90213754 -72.47934163 47.73893118 -72.984375 35.30859375 C-72.71533513 22.86945614 -67.97194674 12.77595573 -59.5078125 3.83984375 C-42.93760051 -11.85208846 -18.46087246 -13.7351102 0 0 Z " fill="#FF9377" transform="translate(102.609375,38.94140625)"/>
<path d="M0 0 C8.67472014 7.34722509 15.5924258 16.61550792 17.390625 28.05859375 C18.43803135 42.85743189 15.93992015 54.83431395 6.203125 66.30859375 C-3.09260864 76.14477702 -14.774951 80.84434707 -28.171875 81.37109375 C-40.73457872 81.21542208 -50.75064128 76.44639329 -59.828125 67.9921875 C-68.54416575 58.90213754 -72.47934163 47.73893118 -72.984375 35.30859375 C-72.71533513 22.86945614 -67.97194674 12.77595573 -59.5078125 3.83984375 C-42.93760051 -11.85208846 -18.46087246 -13.7351102 0 0 Z M-54.609375 16.05859375 C-60.49779573 25.28288586 -62.3287581 34.96122872 -60.03125 45.78125 C-56.9407908 54.64524888 -50.62539889 61.83996182 -42.296875 66.12109375 C-33.88584214 69.92705226 -24.23486735 70.69376937 -15.421875 67.62109375 C-5.72212835 63.15889382 0.75037529 55.65921803 4.640625 45.93359375 C6.45868131 36.54030283 6.43785379 27.41216226 1.390625 19.05859375 C-4.83172842 10.75811843 -11.21045711 5.07128753 -21.609375 3.05859375 C-35.61906834 1.8467461 -45.24853257 5.3865695 -54.609375 16.05859375 Z " fill="#FDFCFD" transform="translate(102.609375,38.94140625)"/>
</svg>
